<?xml version="1.0" encoding="utf-8"?><svg version="1.1" id="Layer_1" xmlns="http://www.w3.org/2000/svg" xmlns:xlink="http://www.w3.org/1999/xlink" x="0px" y="0px" viewBox="0 0 102.16 122.88" style="enable-background:new 0 0 102.16 122.88" xml:space="preserve"><style type="text/css">.st0{fill-rule:evenodd;clip-rule:evenodd;}</style><g><path class="st0" d="M42.96,2.53c5.8-3.93,12.41-3.06,17.87,1.1c1.43,1.1,2.66,2.45,3.63,4.08c0.83,1.39,2.28,4.23-0.43,4.67 c-1.07,0.17-2.93-1.28-4.37-1.75c-1.85-0.6-3.75-0.98-5.64-1.18c-3.51-0.36-6.97-0.07-9.94,0.75c-1.61,0.45-3.18,0.99-4.68,1.68 c-0.7,0.32-2.13,1.28-2.52,0.05C35.97,9.11,40.88,3.94,42.96,2.53L42.96,2.53L42.96,2.53z M47.1,73.65 c-0.54-0.19-0.82-0.79-0.62-1.33c0.2-0.54,0.79-0.82,1.33-0.62c1.14,0.41,2.26,0.59,3.34,0.57c1.08-0.02,2.15-0.25,3.2-0.65 c0.54-0.2,1.13,0.07,1.34,0.6c0.2,0.54-0.07,1.13-0.6,1.34c-1.26,0.48-2.55,0.75-3.89,0.78C49.85,74.37,48.49,74.15,47.1,73.65 L47.1,73.65z M69.33,78.49c7.91,3.06,14.27,5.42,20.25,9.17c3.81,2.38,5.77,4.18,7.32,7.08c3.27,6.14,3.63,11.65,4.12,18.31 l1.14,9.84H85.6l-1.87-8.55l-1.35,8.55c-19.85,0-39.7,0-59.55,0l-1.8-8.55l-1.4,8.55H0l1.14-9.84c0.49-6.66,0.85-12.17,4.12-18.31 c1.54-2.89,3.5-4.68,7.32-7.08c5.98-3.75,12.27-6.08,20.18-9.15C36.91,95.44,69.33,90.68,69.33,78.49L69.33,78.49L69.33,78.49z M58.57,54.58c-0.39-0.28-0.48-0.82-0.22-1.21c0.27-0.41,0.83-0.51,1.23-0.24c0.68,0.45,1.82,0.69,3.02,0.67 c1.14-0.02,2.29-0.27,3.12-0.81c0.41-0.26,0.96-0.15,1.22,0.27c0.19,0.48,0.1,0.89-0.27,1.22C63.97,55.73,61.27,55.84,58.57,54.58 L58.57,54.58z M35.25,54.6c-0.36-0.36-0.6-0.74-0.26-1.25c0.27-0.41,0.83-0.51,1.23-0.24c0.74,0.5,1.85,0.71,2.98,0.7 c1.25-0.01,2.53-0.3,3.36-0.79c0.43-0.25,0.97-0.1,1.21,0.32c0.06,0.23,0.06,0.45,0.01,0.66c-0.18,0.67-0.82,0.75-1.42,0.96 c-1.21,0.42-2.21,0.64-3.23,0.62C37.96,55.56,36.78,55.25,35.25,54.6L35.25,54.6z M59.4,49.44c-0.4,0.28-0.95,0.19-1.23-0.21 c-0.28-0.4-0.19-0.95,0.21-1.23c1.67-1.18,3.38-1.79,5.12-1.8c1.75-0.01,3.49,0.59,5.24,1.79c0.41,0.28,0.5,0.84,0.23,1.23 c-0.28,0.41-0.84,0.5-1.23,0.23c-1.44-0.99-2.85-1.48-4.22-1.47C62.13,47.97,60.76,48.47,59.4,49.44L59.4,49.44L59.4,49.44z M34.45,49.44c-0.4,0.28-0.95,0.19-1.23-0.21c-0.28-0.4-0.19-0.95,0.21-1.23c1.67-1.18,3.38-1.79,5.12-1.8 c1.75-0.01,3.49,0.59,5.24,1.79c0.41,0.28,0.5,0.84,0.23,1.23c-0.28,0.41-0.84,0.5-1.23,0.23c-1.44-0.99-2.85-1.48-4.22-1.47 C37.19,47.97,35.82,48.47,34.45,49.44L34.45,49.44L34.45,49.44z M23.24,45.05c0.25-0.16,0.54-0.23,0.82-0.21 c-0.49-2.53-0.42-4.96-0.31-7.8c0.27-7.43,2.15-13.37,8.01-18.53c8.84-7.78,26.34-8.46,36.07-1.76c1.44,0.99,2.78,2.17,3.99,3.55 c3.95,4.53,7.47,14.48,7.39,20.62c-0.02,1.42-0.25,2.86-0.73,4.33c-0.02,0.15-0.05,0.3-0.09,0.48c1.07,0.67,1.9,1.5,2.52,2.43 c0.91,1.39,1.31,2.99,1.21,4.68c-0.09,1.62-0.65,3.32-1.65,4.99c-1.17,1.93-2.96,3.83-5.34,5.45c-2.08,4.85-4.99,9.71-8.51,13.61 c-2.96,3.28-6.36,5.89-10.07,7.26c-3.8,1.4-7.89,1.51-12.13-0.27c-2.2-0.92-4.43-2.35-6.67-4.37c-2.05-1.85-3.91-4.14-5.59-6.81 c-1.56-2.47-2.96-5.27-4.23-8.35c-0.56-0.17-1.1-0.38-1.6-0.61c-0.72-0.33-1.38-0.73-1.98-1.19c-1.76-1.35-2.92-3.18-3.6-5.2 c-0.75-2.25-0.89-4.74-0.59-7.03c0.16-1.19,0.49-2.22,0.98-3.08C21.67,46.34,22.36,45.61,23.24,45.05L23.24,45.05L23.24,45.05z M24.71,47.3l-0.03,0.02c-0.49,0.31-0.89,0.73-1.19,1.27c-0.32,0.56-0.54,1.27-0.66,2.1c-0.26,1.91-0.15,3.98,0.47,5.82 c0.51,1.54,1.38,2.92,2.68,3.91c0.46,0.35,0.95,0.65,1.48,0.9c0.54,0.25,1.13,0.46,1.77,0.62c0.44,0.1,0.77,0.42,0.93,0.81 c1.28,3.19,2.7,6.05,4.27,8.54c1.55,2.46,3.25,4.55,5.12,6.24c2.01,1.81,3.98,3.08,5.91,3.89c3.55,1.5,6.98,1.4,10.16,0.23 c3.27-1.2,6.32-3.55,9-6.53c3.39-3.75,6.2-8.5,8.18-13.23c0.12-0.27,0.3-0.48,0.53-0.63c2.21-1.45,3.82-3.12,4.84-4.8 c0.77-1.28,1.19-2.55,1.27-3.74c0.06-1.13-0.19-2.17-0.77-3.06c-0.31-0.47-0.71-0.91-1.21-1.29c-1.01,2.3-2.71,5.32-4.9,8.32 l0-13.75c-6.3-2.92-10.42-9.34-12.53-18.99c-2.51,18.37-25.06,17.58-30.73,20.92v10.72c-1.08-1.51-2.04-3.05-2.91-4.61 C25.65,49.67,25.1,48.46,24.71,47.3L24.71,47.3L24.71,47.3z"/></g></svg>