<?xml version="1.0" encoding="utf-8"?><svg version="1.1" id="Layer_1" xmlns="http://www.w3.org/2000/svg" xmlns:xlink="http://www.w3.org/1999/xlink" x="0px" y="0px" viewBox="0 0 122.88 102.56" style="enable-background:new 0 0 122.88 102.56" xml:space="preserve"><style type="text/css"><![CDATA[
	.st0{fill-rule:evenodd;clip-rule:evenodd;}
]]></style><g><path class="st0" d="M68.69,55.03c-0.79,0.27-1.6,0.49-2.44,0.68l0,0c-0.86,0.24-1.65,0.38-2.35,0.4c-0.8,0.02-1.49-0.14-2.04-0.5 c-0.17-0.11-0.32-0.23-0.45-0.36c-0.13,0.13-0.28,0.25-0.45,0.36c-0.55,0.37-1.24,0.51-2.04,0.5c-0.7-0.02-1.49-0.16-2.35-0.4l0,0 c-0.84-0.18-1.65-0.41-2.44-0.68c-0.79-0.27-1.55-0.58-2.3-0.92c-0.36-0.17-0.51-0.57-0.33-0.91c0.11-0.2,0.31-0.33,0.53-0.36l0,0 c0.4-0.06,0.72-0.11,1.02-0.15l0.03,0c0.97-0.13,1.71-0.24,2.61-0.6c0.26-0.1,0.5-0.21,0.76-0.33c1.44-0.67,3.02-1.4,4.6-0.15 c0.14,0.11,0.26,0.22,0.37,0.34c0.11-0.12,0.24-0.23,0.37-0.34c1.57-1.25,3.16-0.52,4.6,0.15c0.25,0.12,0.5,0.23,0.75,0.33 c0.9,0.36,1.65,0.47,2.61,0.6l0.03,0c0.3,0.04,0.62,0.08,1.02,0.15l0,0c0.22,0.04,0.42,0.16,0.53,0.36 c0.18,0.33,0.04,0.74-0.33,0.91C70.24,54.46,69.48,54.76,68.69,55.03L68.69,55.03L68.69,55.03z M85.9,46.5v-8.57 c0.39-1.66,0.95-1.82,1.77-1.97C89.88,35.61,89.62,45.93,85.9,46.5L85.9,46.5L85.9,46.5z M44.17,70.57 c5.65,16.6,29.19,17.15,34.46,0c7.97,7.18,22.96,4.9,34.25,11.45c7.5,4.34,16.23,19.59,3.59,20.54H6.33 c-10.59-0.8-5.74-12.15-0.98-16.96C17.61,73.21,41.25,81.4,44.17,70.57L44.17,70.57L44.17,70.57z M31.85,19.92v-3.78 c0.79-6.56,3.84-9.19,8.86-8.43c4.77-4.98,11.5-7.77,20.77-7.7C71.79-0.2,80.6,2.22,86.99,8.77c3.36,3.35,4.8,6.84,3.93,14.2 c0.18,7.23,0.97,7.82-1.37,9.1c-0.01,0.2-0.02,0.39-0.03,0.6l-1.62,1.02c1.3-0.09,2.22,0.72,2.77,2.09 c0.27,0.69,0.45,1.53,0.52,2.46c0.06,0.86,0.05,1.81-0.06,2.78c-0.38,3.51-2,7.17-4.98,7.6c-0.13,0.02-0.26,0.02-0.38,0.01v0.45 c0,0.02,0,0.04,0,0.06c0.2,4.9-2.39,10.34-6.57,14.7c-7.6,7.93-20.09,11.88-30.93,2.9c-1.88-1.57-4.08-3.11-5.8-5.53 c0.02-0.02,0.04-0.04,0.05-0.05l-0.04-0.03c-2.8-2.6-4.11-3.83-5.23-9.17c-0.02-0.1-0.03-0.22-0.03-0.32l0,0v-3 c-0.16,0.03-0.32,0.03-0.49,0c-2.99-0.44-4.6-4.1-4.98-7.6c-0.1-0.96-0.12-1.92-0.06-2.78c0.07-0.92,0.25-1.77,0.52-2.45 c0.59-1.5,1.63-2.33,3.11-2.05c0.71,0.13,1.37,0.5,1.91,1.12v-1.22l-1.21-0.68c-0.15-0.98-0.17-1.99-0.1-3 C33.7,26.3,32,22.75,31.85,19.92L31.85,19.92L31.85,19.92z M83.05,32.14c-1.43-4-3.84-4.46-7.28-6.56 c-2.89-1.25-5.42-2.31-7.82-3.07c-5.82-1.3-12.22-0.92-17.52,0.85c-1.41,0.55-2.9,1.22-4.51,2.02c-3.38,1.98-5.47,2.17-6.18,5.54 v1.58c7.22-1.04,14.29-1.85,21.69-1.84c5.12,0.01,10.25,0.37,15.37,1.05c2.08,0.01,4.15,0.35,6.23,0.69v-0.27H83.05L83.05,32.14z M39.74,34.63v16.99c1.2,5.77,1.65,4.69,5.34,8.31l6.41,6.28c1.16,0.95,2.47,1.51,3.85,1.84c4.74,1.12,14.72,0.67,18.46-3.26 c5.57-5.42,9.61-7.06,9.22-15.72V34.56l-2.75-0.41c0.24,0.38,0.45,0.78,0.61,1.19c0.18,0.43,0.31,0.89,0.4,1.35 c0.07,0.37,0.12,0.73,0.14,1.1c0.02,0.37,0.01,0.74-0.02,1.11c-0.03,0.37-0.09,0.74-0.18,1.1c-0.08,0.35-0.19,0.71-0.33,1.06 c-0.14,0.35-0.3,0.7-0.5,1.04c-0.19,0.33-0.41,0.65-0.64,0.95c-0.24,0.3-0.5,0.58-0.78,0.84l-0.02,0.02 c-0.27,0.25-0.57,0.48-0.88,0.7c-0.37,0.25-0.77,0.48-1.2,0.67l-0.01,0.01c-0.41,0.18-0.84,0.33-1.3,0.45 c-0.44,0.11-0.91,0.19-1.4,0.24C73.69,46,73.2,46,72.69,45.97c-0.36-0.02-0.74-0.06-1.11-0.12l-0.01,0 c-0.37-0.06-0.74-0.14-1.09-0.23c-0.36-0.09-0.73-0.21-1.1-0.34c-0.35-0.12-0.71-0.27-1.06-0.44c-0.44-0.2-0.86-0.43-1.27-0.68 l-0.02-0.01c-0.39-0.24-0.78-0.51-1.14-0.8c-0.36-0.29-0.71-0.6-1.02-0.92c-0.31-0.32-0.61-0.67-0.87-1.02 c-0.28-0.38-0.53-0.78-0.75-1.21c-0.21-0.41-0.38-0.84-0.52-1.28c-0.13-0.42-0.23-0.85-0.28-1.29c-0.04-0.35-0.06-0.7-0.06-1.06 l-0.36-0.14c-0.09-0.03-0.19-0.05-0.28-0.06c-0.09-0.01-0.19-0.02-0.27-0.02c-0.1,0-0.2,0.01-0.29,0.02 c-0.1,0.02-0.2,0.04-0.29,0.08c-0.1,0.03-0.2,0.08-0.31,0.13l-0.14,0.08c0,0.37-0.02,0.73-0.07,1.08 c-0.06,0.44-0.15,0.86-0.28,1.27c-0.14,0.43-0.31,0.85-0.52,1.26l-0.01,0.02c-0.21,0.41-0.46,0.8-0.73,1.18 c-0.26,0.36-0.56,0.7-0.87,1.02c-0.32,0.33-0.66,0.64-1.02,0.92c-0.36,0.29-0.75,0.56-1.16,0.81c-0.4,0.25-0.83,0.48-1.27,0.68 c-0.36,0.16-0.71,0.31-1.07,0.44l-0.03,0.01c-0.35,0.12-0.7,0.23-1.06,0.32c-0.36,0.09-0.74,0.17-1.12,0.23 c-0.37,0.06-0.74,0.1-1.1,0.12c-0.51,0.03-1,0.02-1.48-0.02c-0.5-0.04-0.97-0.13-1.41-0.24c-0.46-0.12-0.9-0.27-1.31-0.45 l-0.02-0.01c-0.42-0.19-0.81-0.41-1.17-0.65l-0.02-0.01c-0.31-0.21-0.61-0.45-0.88-0.7c-0.28-0.26-0.55-0.54-0.78-0.84l-0.01-0.01 c-0.24-0.29-0.45-0.61-0.64-0.94c-0.19-0.34-0.36-0.68-0.5-1.04c-0.14-0.35-0.25-0.71-0.34-1.07c-0.08-0.35-0.14-0.72-0.18-1.1 c-0.03-0.37-0.04-0.74-0.02-1.1c0.02-0.37,0.07-0.74,0.14-1.1l0.01-0.04c0.09-0.45,0.23-0.89,0.4-1.31c0.16-0.4,0.36-0.79,0.6-1.16 L39.74,34.63L39.74,34.63z M47.86,37.94c-0.36,0.15-0.76-0.08-0.89-0.49c-0.13-0.41,0.07-0.87,0.43-1c2.8-1.09,4.8-1.02,7.6,0 c0.36,0.13,0.57,0.58,0.46,0.99c-0.11,0.41-0.51,0.64-0.87,0.52c-0.47-0.17-0.93-0.31-1.4-0.41c0.05,0.17,0.07,0.34,0.07,0.53 c0,1.08-0.87,1.96-1.96,1.96c-1.08,0-1.96-0.88-1.96-1.96c0-0.27,0.05-0.52,0.15-0.75C48.67,37.41,48.69,37.62,47.86,37.94 L47.86,37.94L47.86,37.94L47.86,37.94z M69.69,37.36c-0.08,0.22-0.12,0.45-0.12,0.69c0,1.08,0.88,1.96,1.96,1.96 c1.08,0,1.96-0.88,1.96-1.96c0-0.31-0.07-0.6-0.2-0.86c0.85,0.09,1.72,0.28,2.58,0.56c0.37,0.12,0.76-0.12,0.86-0.55 c0.1-0.42-0.11-0.86-0.47-0.98c-1.41-0.47-2.82-0.69-4.23-0.68c-1.4,0-2.8,0.24-4.17,0.69c-0.37,0.12-0.58,0.56-0.48,0.97 c0.1,0.41,0.5,0.66,0.86,0.54C68.71,37.59,69.2,37.45,69.69,37.36L69.69,37.36L69.69,37.36L69.69,37.36z M58.99,48.07 c-0.38-0.32-0.44-0.89-0.11-1.27c0.32-0.38,0.89-0.43,1.27-0.11c0.46,0.38,0.89,0.58,1.31,0.58c0.41,0.01,0.87-0.19,1.36-0.59 c0.38-0.32,0.95-0.26,1.27,0.12c0.32,0.38,0.26,0.95-0.12,1.27c-0.83,0.68-1.68,1.02-2.53,0.99 C60.57,49.06,59.76,48.72,58.99,48.07L58.99,48.07L58.99,48.07L58.99,48.07z M56.15,59.81c-0.47-0.25-0.64-0.83-0.39-1.28 c0.25-0.47,0.83-0.64,1.28-0.39c1.47,0.78,2.91,1.17,4.33,1.18c1.42,0,2.84-0.38,4.27-1.17c0.47-0.25,1.04-0.08,1.29,0.37 c0.25,0.46,0.08,1.04-0.37,1.29c-1.71,0.94-3.43,1.41-5.18,1.4C59.62,61.2,57.88,60.73,56.15,59.81L56.15,59.81L56.15,59.81 L56.15,59.81z M36.92,46.5v-8.57c-0.39-1.66-0.86-1.73-1.68-1.89C33.03,35.7,33.08,45.67,36.92,46.5L36.92,46.5L36.92,46.5z M77.17,33.58c-2.01-0.18-4.02-0.28-6.03-0.29c-2.05-0.01-4.11,0.08-6.17,0.3c-0.09,0.18-0.17,0.35-0.24,0.53 c-0.1,0.24-0.18,0.48-0.25,0.7c-0.07,0.25-0.13,0.5-0.18,0.73c-0.04,0.24-0.07,0.47-0.09,0.71c-0.02,0.37-0.02,0.73,0.02,1.08 l0,0.01c0.04,0.35,0.12,0.71,0.22,1.05l0.01,0.03c0.11,0.34,0.24,0.67,0.41,1c0.18,0.34,0.38,0.67,0.61,0.98 c0.22,0.3,0.46,0.58,0.72,0.85c0.27,0.27,0.55,0.53,0.85,0.77c0.31,0.24,0.64,0.48,0.99,0.69c0.34,0.21,0.7,0.4,1.07,0.57 l0.02,0.01c0.29,0.14,0.59,0.26,0.89,0.36c0.3,0.11,0.62,0.21,0.93,0.29c0.31,0.08,0.62,0.15,0.93,0.19 c0.3,0.05,0.62,0.08,0.93,0.1c0.41,0.02,0.81,0.02,1.19-0.02c0.39-0.03,0.75-0.1,1.1-0.18l0.01,0c0.35-0.09,0.69-0.21,1.01-0.35 c0.33-0.15,0.63-0.32,0.91-0.5c0.25-0.17,0.48-0.35,0.69-0.55l0.02-0.02c0.21-0.19,0.4-0.4,0.58-0.62l0.03-0.03 c0.18-0.22,0.34-0.46,0.48-0.71c0.15-0.25,0.27-0.52,0.39-0.81c0.11-0.27,0.2-0.55,0.26-0.84c0.07-0.28,0.11-0.58,0.14-0.87l0-0.04 c0.02-0.28,0.03-0.56,0.01-0.85c-0.01-0.29-0.05-0.58-0.11-0.85c-0.07-0.35-0.17-0.69-0.3-1.01c-0.13-0.32-0.29-0.64-0.48-0.93 c-0.18-0.29-0.39-0.56-0.62-0.81c-0.16-0.17-0.33-0.33-0.51-0.49C77.44,33.73,77.3,33.66,77.17,33.58L77.17,33.58z M46.06,33.6 c-0.12,0.08-0.27,0.14-0.42,0.16l-0.45,0.07c-0.17,0.15-0.33,0.3-0.48,0.46c-0.24,0.26-0.45,0.53-0.63,0.82 c-0.19,0.3-0.35,0.61-0.48,0.93c-0.13,0.33-0.23,0.67-0.3,1.01c-0.06,0.29-0.09,0.58-0.11,0.87c-0.02,0.29-0.01,0.58,0.02,0.88 l0,0.03c0.03,0.27,0.07,0.56,0.14,0.84c0.07,0.29,0.15,0.57,0.26,0.84c0.11,0.27,0.24,0.55,0.39,0.81l0.02,0.03 c0.14,0.25,0.3,0.48,0.48,0.7c0.18,0.23,0.38,0.44,0.6,0.64l0.01,0.01c0.21,0.2,0.44,0.38,0.68,0.54c0.28,0.19,0.58,0.36,0.91,0.5 l0.02,0.01c0.31,0.14,0.65,0.25,1,0.34c0.34,0.09,0.71,0.15,1.1,0.18c0.38,0.03,0.78,0.04,1.19,0.02c0.31-0.02,0.63-0.05,0.93-0.1 s0.61-0.11,0.92-0.19c0.31-0.08,0.63-0.18,0.92-0.28c0.3-0.11,0.61-0.23,0.91-0.37c0.36-0.17,0.73-0.36,1.08-0.58l0.02-0.01 c0.34-0.21,0.66-0.44,0.97-0.67c0.3-0.24,0.58-0.49,0.85-0.77c0.26-0.27,0.5-0.55,0.72-0.84c0.23-0.31,0.43-0.64,0.61-0.98 c0.17-0.34,0.31-0.68,0.42-1.03c0.1-0.35,0.18-0.7,0.22-1.06c0.04-0.35,0.05-0.71,0.02-1.08c-0.02-0.24-0.05-0.48-0.09-0.72l0-0.02 c-0.04-0.23-0.1-0.47-0.17-0.71c-0.07-0.24-0.15-0.47-0.25-0.71c-0.07-0.17-0.15-0.35-0.23-0.52c-2.08-0.19-4.15-0.27-6.21-0.27 C49.78,33.38,47.92,33.46,46.06,33.6L46.06,33.6z M63.13,33.25h-3.47l0.04,0.09c0.1,0.23,0.19,0.45,0.26,0.67 c0.08,0.22,0.15,0.45,0.21,0.67l0.05,0.19l0.31-0.1c0.15-0.04,0.3-0.07,0.45-0.09c0.16-0.02,0.32-0.03,0.48-0.03 c0.15,0,0.29,0.01,0.44,0.02c0.15,0.02,0.29,0.04,0.44,0.08l0.25,0.07l0.05-0.2c0.06-0.21,0.12-0.43,0.2-0.66l0.01-0.02 c0.07-0.22,0.16-0.42,0.24-0.62L63.13,33.25L63.13,33.25z"/></g></svg>