<svg xmlns="http://www.w3.org/2000/svg" width="96" height="96" viewBox="0 0 96 96" aria-hidden="true">
  <defs>
    <filter id="s" x="-20%" y="-20%" width="140%" height="140%">
      <feDropShadow dx="0" dy="2" stdDeviation="2" flood-color="#000" flood-opacity=".25"/>
    </filter>
  </defs>
  <circle cx="48" cy="48" r="42" fill="#2d6a4f" filter="url(#s)"/>
  <circle cx="48" cy="42" r="16" fill="#d8f3dc"/>
  <path d="M32 20c0-7 5-12 16-12s16 5 16 12c0 1-0.1 2-0.4 3-2.8-3.6-7.6-6-15.6-6s-12.8 2.4-15.6 6c-0.3-1-0.4-2-0.4-3z" fill="#111827"/>
  <path d="M22 78c6-14 17-22 26-22s20 8 26 22" fill="#d8f3dc" opacity="0.95"/>
  <path d="M22 78c6-14 17-22 26-22s20 8 26 22" stroke="#081c15" stroke-width="3" fill="none" opacity="0.35"/>
  <path d="M44 58c2 2 6 2 8 0" stroke="#3a86ff" stroke-width="3" stroke-linecap="round" fill="none"/>
</svg>
